# xmcd
#
# Track frame offsets: 
#        150
#        17063
#        37210
#        53116
#        69525
#        86513
#        104500
#        122737
#        143868
#        158819
#        178613
#        202491
#        235371
#
# Disc length: 3893 seconds
#
# Revision: 13
# Processed by: cddbd v1.4PL0 Copyright (c) Steve Scherf et al.
# Submitted via: ExactAudioCopy v0.90a11
#
DISCID=c00f330d
DTITLE=Stojan Mihalev and Viktor - Otkakto ti ...
DYEAR=1900
DGENRE=
TTITLE0=Vjarvam v teb(remix)
TTITLE1=Otkakto ti
TTITLE2=Kazhi mi 'da'
TTITLE3=Zmia
TTITLE4=Sylza
TTITLE5=Myrtvi iskri
TTITLE6=Obsebvane
TTITLE7=Ogledalo
TTITLE8=Beli synishta
TTITLE9=Zmia(remix)
TTITLE10=Leden syn
TTITLE11=Vjarvam v teb
TTITLE12=Otkakto ti(video)
EXTD=
EXTT0=
EXTT1=
EXTT2=
EXTT3=
EXTT4=
EXTT5=
EXTT6=
EXTT7=
EXTT8=
EXTT9=
EXTT10=
EXTT11=
EXTT12=
PLAYORDER=
